<svg width="58" height="48" viewBox="0 0 58 48" fill="none" xmlns="http://www.w3.org/2000/svg">
<path fill-rule="evenodd" clip-rule="evenodd" d="M3.87968 0C1.41222 4.70677 0 10.1714 0 16C0 33.6731 12.9837 48 29 48C45.0163 48 58 33.6731 58 16C58 10.1714 56.5878 4.70677 54.1203 0H49.5247C52.3315 4.49104 54 9.9793 54 16C54 31.8436 42.4457 44 29 44C15.5543 44 4 31.8436 4 16C4 9.9793 5.66852 4.49104 8.4753 0H3.87968Z" fill="#7A7A7A"/>
<path fill-rule="evenodd" clip-rule="evenodd" d="M16 28C18.9322 33.4572 23.6631 37 29 37C34.3369 37 39.0678 33.4572 42 28H16Z" fill="#7A7A7A"/>
</svg>
