<?xml version="1.0" standalone="no"?>
<!DOCTYPE svg PUBLIC "-//W3C//DTD SVG 20010904//EN"
 "http://www.w3.org/TR/2001/REC-SVG-20010904/DTD/svg10.dtd">
<svg version="1.0" xmlns="http://www.w3.org/2000/svg"
 width="700.000000pt" height="700.000000pt" viewBox="0 0 700.000000 700.000000"
 preserveAspectRatio="xMidYMid meet">
<metadata>
Created by potrace 1.14, written by Peter Selinger 2001-2017
</metadata>
<g transform="translate(0.000000,700.000000) scale(0.100000,-0.100000)"
fill="#000000" stroke="none">
<path d="M3775 6934 c-311 -187 -500 -500 -533 -879 -10 -125 -2 -451 13 -474
1 -3 6 -37 10 -76 3 -38 8 -72 10 -75 2 -3 6 -26 10 -50 3 -25 11 -65 17 -90
5 -25 12 -56 14 -70 3 -14 10 -43 16 -65 5 -22 12 -51 14 -65 3 -14 8 -34 11
-45 4 -11 8 -24 9 -30 21 -106 194 -645 299 -930 20 -55 47 -129 60 -165 12
-36 66 -182 120 -325 53 -143 121 -327 152 -410 30 -82 63 -172 73 -200 67
-177 259 -789 273 -870 3 -17 13 -58 22 -92 9 -35 18 -71 20 -80 2 -10 10 -49
19 -88 18 -85 53 -291 61 -360 16 -149 19 -194 19 -350 0 -161 -8 -300 -19
-355 -3 -14 -8 -41 -10 -60 -15 -105 -87 -325 -145 -442 -26 -54 -45 -98 -41
-98 3 1 29 14 56 30 28 16 57 33 65 37 8 4 51 31 95 61 263 180 486 412 692
722 185 277 314 546 437 909 31 89 56 165 57 169 1 4 3 12 5 17 3 10 52 207
59 235 10 44 46 230 51 260 3 19 12 76 19 125 13 82 17 114 30 240 26 248 27
729 1 1005 -9 93 -30 257 -40 305 -2 11 -9 54 -16 95 -7 41 -21 113 -31 160
-11 47 -22 96 -25 110 -28 139 -148 508 -219 675 -108 255 -252 517 -377 690
-36 49 -114 152 -123 161 -5 6 -30 36 -54 65 -63 77 -235 244 -326 318 -213
171 -430 286 -670 356 -49 14 -97 28 -105 30 -8 3 -42 -11 -75 -31z"/>
<path d="M2795 6837 c-109 -50 -244 -132 -362 -221 -192 -144 -441 -410 -569
-606 -16 -25 -31 -47 -35 -50 -4 -4 -45 -70 -94 -152 -62 -104 -215 -405 -215
-424 0 -2 -9 -23 -20 -47 -10 -23 -26 -60 -33 -82 -8 -22 -29 -80 -47 -130
-90 -252 -188 -648 -216 -870 -2 -16 -6 -49 -9 -72 -3 -24 -7 -64 -10 -90 -3
-27 -8 -61 -10 -78 -27 -208 -27 -882 0 -1035 2 -14 7 -50 10 -80 3 -30 9 -73
12 -95 3 -22 7 -47 8 -55 5 -34 18 -116 21 -135 3 -11 7 -36 10 -55 8 -52 75
-341 85 -368 5 -13 11 -35 14 -50 6 -33 85 -276 115 -352 12 -30 27 -71 34
-90 88 -236 283 -583 457 -815 115 -154 287 -337 409 -435 30 -25 57 -47 60
-51 10 -11 166 -117 220 -149 157 -93 339 -167 501 -205 l77 -18 63 33 c364
188 566 482 607 880 13 122 4 441 -13 510 -2 8 -7 40 -10 70 -3 30 -8 62 -10
70 -2 8 -7 31 -10 50 -3 19 -8 42 -10 50 -2 8 -7 31 -10 50 -9 51 -71 297
-106 420 -77 267 -222 682 -489 1395 -141 377 -253 700 -324 930 -21 66 -42
136 -49 155 -6 19 -12 40 -13 45 -2 6 -10 37 -19 70 -9 33 -19 70 -21 82 -2
12 -9 34 -14 48 -5 14 -7 25 -5 25 2 0 0 12 -5 26 -11 27 -54 214 -64 274 -9
58 -25 144 -30 167 -2 12 -7 49 -11 82 -3 33 -8 68 -10 79 -23 124 -24 540 0
663 3 13 7 41 10 64 10 66 46 215 70 285 28 83 102 247 126 282 34 48 28 49
-66 5z"/>
</g>
</svg>
