<?xml version="1.0" standalone="no"?>
<!DOCTYPE svg PUBLIC "-//W3C//DTD SVG 20010904//EN"
 "http://www.w3.org/TR/2001/REC-SVG-20010904/DTD/svg10.dtd">
<svg version="1.0" xmlns="http://www.w3.org/2000/svg"
 width="512.000000pt" height="512.000000pt" viewBox="0 0 512.000000 512.000000"
 preserveAspectRatio="xMidYMid meet">
<metadata>
Created by potrace 1.14, written by Peter Selinger 2001-2017
</metadata>
<g transform="translate(0.000000,512.000000) scale(0.100000,-0.100000)"
fill="#000000" stroke="none">
<path d="M2683 4417 c-74 -48 -165 -147 -201 -218 -45 -91 -63 -168 -69 -296
-14 -294 58 -568 367 -1398 154 -413 237 -686 281 -930 17 -92 23 -160 23
-290 1 -198 -15 -294 -70 -420 -20 -44 -38 -86 -41 -94 -5 -11 -2 -11 18 -1
126 67 289 210 397 349 506 647 594 1758 203 2556 -163 333 -375 563 -638 695
-43 21 -110 48 -150 59 l-72 19 -48 -31z"/>
<path d="M2146 4364 c-447 -229 -762 -773 -852 -1471 -22 -172 -22 -494 0
-668 68 -531 269 -975 571 -1263 145 -139 317 -239 472 -275 l61 -15 69 41
c145 87 245 224 278 382 19 90 19 259 0 384 -36 242 -102 458 -315 1031 -198
534 -285 819 -326 1075 -24 152 -25 402 -1 510 22 95 61 204 94 263 14 23 23
42 21 42 -1 0 -34 -16 -72 -36z"/>
</g>
</svg>
